<mxfile host="app.diagrams.net" modified="2024-04-21T19:43:57.356Z" agent="Mozilla/5.0 (Windows NT 10.0; Win64; x64) AppleWebKit/537.36 (KHTML, like Gecko) Chrome/123.0.0.0 Safari/537.36" etag="XsyHJrHityGYEIuNxl66" version="24.2.2" type="device">
  <diagram name="Página-1" id="rMDzQAJeFNbe1JNbAyg4">
    <mxGraphModel dx="1434" dy="780" grid="1" gridSize="10" guides="1" tooltips="1" connect="1" arrows="1" fold="1" page="1" pageScale="1" pageWidth="827" pageHeight="1169" math="0" shadow="0">
      <root>
        <mxCell id="0" />
        <mxCell id="1" parent="0" />
        <mxCell id="NbV2ZQZ7XA-QAjactZB9-1" value="&lt;span style=&quot;background-color: rgb(230, 230, 230);&quot;&gt;&lt;span style=&quot;-webkit-user-drag: none; -webkit-tap-highlight-color: transparent; margin: 0px; padding: 0px; user-select: text; font-size: 11pt; text-align: justify; white-space-collapse: preserve; line-height: 19.425px; font-family: &amp;quot;Calibri Light&amp;quot;, &amp;quot;Calibri Light_EmbeddedFont&amp;quot;, &amp;quot;Calibri Light_MSFontService&amp;quot;, sans-serif; font-variant-ligatures: none !important;&quot; class=&quot;TextRun SCXW74240915 BCX8&quot; lang=&quot;ES-ES&quot; data-contrast=&quot;none&quot;&gt;&lt;span style=&quot;-webkit-user-drag: none; -webkit-tap-highlight-color: transparent; margin: 0px; padding: 0px; user-select: text;&quot; data-ccp-parastyle=&quot;heading 5&quot; class=&quot;NormalTextRun SCXW74240915 BCX8&quot;&gt;Aplicaciones de usuario de &lt;/span&gt;&lt;span style=&quot;-webkit-user-drag: none; -webkit-tap-highlight-color: transparent; margin: 0px; padding: 0px; user-select: text; background-repeat: repeat-x; background-position: left bottom; background-image: var(--urlAdvancedProofingIssueV2, url(&#39;data:image/svg+xml;base64,PD94bWwgdmVyc2lvbj0iMS4wIiBlbmNvZGluZz0iVVRGLTgiPz4KPHN2ZyB3aWR0aD0iMTBweCIgaGVpZ2h0PSIycHgiIHZpZXdCb3g9IjAgMCAxMCAyIiB2ZXJzaW9uPSIxLjEiIHhtbG5zPSJodHRwOi8vd3d3LnczLm9yZy8yMDAwL3N2ZyIgeG1sbnM6eGxpbms9Imh0dHA6Ly93d3cudzMub3JnLzE5OTkveGxpbmsiPgogICAgPCEtLSBHZW5lcmF0b3I6IFNrZXRjaCA1Ny4xICg4MzA4OCkgLSBodHRwczovL3NrZXRjaC5jb20gLS0+CiAgICA8dGl0bGU+aW5zaWdodF90ZXh0dXJlPC90aXRsZT4KICAgIDxkZXNjPkNyZWF0ZWQgd2l0aCBTa2V0Y2guPC9kZXNjPgogICAgPGcgaWQ9Imluc2lnaHRfdGV4dHVyZSIgc3Ryb2tlPSJub25lIiBzdHJva2Utd2lkdGg9IjEiIGZpbGw9Im5vbmUiIGZpbGwtcnVsZT0iZXZlbm9kZCI+CiAgICAgICAgPGcgaWQ9Ikdyb3VwLTItQ29weSI+CiAgICAgICAgICAgIDxyZWN0IGlkPSJSZWN0YW5nbGUiIHg9IjAiIHk9IjAiIHdpZHRoPSIxMCIgaGVpZ2h0PSIyIj48L3JlY3Q+CiAgICAgICAgICAgIDxwYXRoIGQ9Ik0xLDEgTDUsMSIgaWQ9IkxpbmUtNCIgc3Ryb2tlPSIjNzE2MEU4IiBzdHJva2Utd2lkdGg9IjIiIHN0cm9rZS1saW5lY2FwPSJyb3VuZCI+PC9wYXRoPgogICAgICAgIDwvZz4KICAgIDwvZz4KPC9zdmc+&#39;)); border-bottom: 1px solid transparent;&quot; data-ccp-parastyle=&quot;heading 5&quot; class=&quot;NormalTextRun AdvancedProofingIssueV2Themed SCXW74240915 BCX8&quot;&gt;app&lt;/span&gt;&lt;span style=&quot;-webkit-user-drag: none; -webkit-tap-highlight-color: transparent; margin: 0px; padding: 0px; user-select: text;&quot; data-ccp-parastyle=&quot;heading 5&quot; class=&quot;NormalTextRun SCXW74240915 BCX8&quot;&gt; de avisos y mensajería&lt;/span&gt;&lt;/span&gt;&lt;span style=&quot;-webkit-user-drag: none; -webkit-tap-highlight-color: transparent; margin: 0px; padding: 0px; user-select: text; font-size: 11pt; text-align: justify; white-space-collapse: preserve; line-height: 19.425px; font-family: &amp;quot;Calibri Light&amp;quot;, &amp;quot;Calibri Light_EmbeddedFont&amp;quot;, &amp;quot;Calibri Light_MSFontService&amp;quot;, sans-serif;&quot; data-ccp-props=&quot;{&amp;quot;134245418&amp;quot;:true,&amp;quot;134245529&amp;quot;:true,&amp;quot;201341983&amp;quot;:0,&amp;quot;335551550&amp;quot;:6,&amp;quot;335551620&amp;quot;:6,&amp;quot;335559738&amp;quot;:40,&amp;quot;335559739&amp;quot;:0,&amp;quot;335559740&amp;quot;:259}&quot; class=&quot;EOP SCXW74240915 BCX8&quot;&gt;&amp;nbsp;&lt;/span&gt;&lt;/span&gt;" style="shape=process;whiteSpace=wrap;html=1;backgroundOutline=1;fillColor=#E6E6E6;" parent="1" vertex="1">
          <mxGeometry x="40" y="450" width="140" height="80" as="geometry" />
        </mxCell>
        <mxCell id="NbV2ZQZ7XA-QAjactZB9-3" value="Archivo de mensajes" style="rounded=1;whiteSpace=wrap;html=1;fillColor=#E6E6E6;" parent="1" vertex="1">
          <mxGeometry x="240" y="320" width="120" height="60" as="geometry" />
        </mxCell>
        <mxCell id="NbV2ZQZ7XA-QAjactZB9-4" value="Historico de Alertas" style="rounded=1;whiteSpace=wrap;html=1;fillColor=#E6E6E6;" parent="1" vertex="1">
          <mxGeometry x="240" y="600" width="120" height="60" as="geometry" />
        </mxCell>
        <mxCell id="NbV2ZQZ7XA-QAjactZB9-5" value="Adición&lt;div&gt;de&lt;/div&gt;&lt;div&gt;Mensajes&lt;/div&gt;" style="rounded=1;whiteSpace=wrap;html=1;fillColor=#E6E6E6;" parent="1" vertex="1">
          <mxGeometry x="420" y="185" width="120" height="60" as="geometry" />
        </mxCell>
        <mxCell id="NbV2ZQZ7XA-QAjactZB9-6" value="Listados de&lt;div&gt;mensajes dentro de una Conversación&lt;/div&gt;" style="rounded=1;whiteSpace=wrap;html=1;fillColor=#E6E6E6;" parent="1" vertex="1">
          <mxGeometry x="420" y="275" width="120" height="60" as="geometry" />
        </mxCell>
        <mxCell id="NbV2ZQZ7XA-QAjactZB9-7" value="Creación de una&lt;div&gt;Conversación&lt;/div&gt;" style="rounded=1;whiteSpace=wrap;html=1;fillColor=#E6E6E6;" parent="1" vertex="1">
          <mxGeometry x="420" y="365" width="120" height="60" as="geometry" />
        </mxCell>
        <mxCell id="NbV2ZQZ7XA-QAjactZB9-8" value="Listado de conversaciones" style="rounded=1;whiteSpace=wrap;html=1;fillColor=#E6E6E6;" parent="1" vertex="1">
          <mxGeometry x="420" y="455" width="120" height="60" as="geometry" />
        </mxCell>
        <mxCell id="NbV2ZQZ7XA-QAjactZB9-9" value="Listado de alertas" style="rounded=1;whiteSpace=wrap;html=1;fillColor=#E6E6E6;" parent="1" vertex="1">
          <mxGeometry x="420" y="535" width="120" height="60" as="geometry" />
        </mxCell>
        <mxCell id="NbV2ZQZ7XA-QAjactZB9-10" value="Notificaciones push para alertas" style="rounded=1;whiteSpace=wrap;html=1;fillColor=#E6E6E6;" parent="1" vertex="1">
          <mxGeometry x="420" y="665" width="120" height="60" as="geometry" />
        </mxCell>
        <mxCell id="NbV2ZQZ7XA-QAjactZB9-11" value="Filtrado de alertas" style="rounded=1;whiteSpace=wrap;html=1;fillColor=#E6E6E6;" parent="1" vertex="1">
          <mxGeometry x="590" y="535" width="120" height="60" as="geometry" />
        </mxCell>
        <mxCell id="NbV2ZQZ7XA-QAjactZB9-13" value="Notificaciones Push para mensajes" style="rounded=1;whiteSpace=wrap;html=1;fillColor=#E6E6E6;" parent="1" vertex="1">
          <mxGeometry x="590" y="185" width="120" height="60" as="geometry" />
        </mxCell>
        <mxCell id="NbV2ZQZ7XA-QAjactZB9-14" value="" style="endArrow=none;html=1;rounded=0;entryX=0;entryY=0.5;entryDx=0;entryDy=0;exitX=0;exitY=0.5;exitDx=0;exitDy=0;fillColor=#E6E6E6;" parent="1" source="NbV2ZQZ7XA-QAjactZB9-4" target="NbV2ZQZ7XA-QAjactZB9-3" edge="1">
          <mxGeometry width="50" height="50" relative="1" as="geometry">
            <mxPoint x="150" y="400" as="sourcePoint" />
            <mxPoint x="200" y="350" as="targetPoint" />
            <Array as="points">
              <mxPoint x="210" y="630" />
              <mxPoint x="210" y="500" />
              <mxPoint x="210" y="350" />
            </Array>
          </mxGeometry>
        </mxCell>
        <mxCell id="NbV2ZQZ7XA-QAjactZB9-15" value="" style="endArrow=none;html=1;rounded=0;exitX=1;exitY=0.5;exitDx=0;exitDy=0;fillColor=#E6E6E6;" parent="1" source="NbV2ZQZ7XA-QAjactZB9-1" edge="1">
          <mxGeometry width="50" height="50" relative="1" as="geometry">
            <mxPoint x="275" y="480" as="sourcePoint" />
            <mxPoint x="210" y="490" as="targetPoint" />
          </mxGeometry>
        </mxCell>
        <mxCell id="NbV2ZQZ7XA-QAjactZB9-16" value="" style="endArrow=none;html=1;rounded=0;entryX=0;entryY=0.5;entryDx=0;entryDy=0;exitX=0;exitY=0.5;exitDx=0;exitDy=0;fillColor=#E6E6E6;" parent="1" source="NbV2ZQZ7XA-QAjactZB9-8" target="NbV2ZQZ7XA-QAjactZB9-5" edge="1">
          <mxGeometry width="50" height="50" relative="1" as="geometry">
            <mxPoint x="330" y="245" as="sourcePoint" />
            <mxPoint x="380" y="195" as="targetPoint" />
            <Array as="points">
              <mxPoint x="390" y="485" />
              <mxPoint x="390" y="355" />
              <mxPoint x="390" y="215" />
            </Array>
          </mxGeometry>
        </mxCell>
        <mxCell id="NbV2ZQZ7XA-QAjactZB9-17" value="" style="endArrow=none;html=1;rounded=0;fillColor=#E6E6E6;" parent="1" edge="1">
          <mxGeometry width="50" height="50" relative="1" as="geometry">
            <mxPoint x="390" y="305" as="sourcePoint" />
            <mxPoint x="420" y="305" as="targetPoint" />
          </mxGeometry>
        </mxCell>
        <mxCell id="NbV2ZQZ7XA-QAjactZB9-18" value="" style="endArrow=none;html=1;rounded=0;fillColor=#E6E6E6;" parent="1" edge="1">
          <mxGeometry width="50" height="50" relative="1" as="geometry">
            <mxPoint x="390" y="395" as="sourcePoint" />
            <mxPoint x="420" y="395" as="targetPoint" />
          </mxGeometry>
        </mxCell>
        <mxCell id="NbV2ZQZ7XA-QAjactZB9-19" value="" style="endArrow=none;html=1;rounded=0;entryX=0;entryY=0.5;entryDx=0;entryDy=0;exitX=1;exitY=0.5;exitDx=0;exitDy=0;fillColor=#E6E6E6;" parent="1" source="NbV2ZQZ7XA-QAjactZB9-5" target="NbV2ZQZ7XA-QAjactZB9-13" edge="1">
          <mxGeometry width="50" height="50" relative="1" as="geometry">
            <mxPoint x="390" y="395" as="sourcePoint" />
            <mxPoint x="440" y="345" as="targetPoint" />
          </mxGeometry>
        </mxCell>
        <mxCell id="NbV2ZQZ7XA-QAjactZB9-21" value="" style="endArrow=none;html=1;rounded=0;exitX=1;exitY=0.5;exitDx=0;exitDy=0;fillColor=#E6E6E6;" parent="1" source="NbV2ZQZ7XA-QAjactZB9-3" edge="1">
          <mxGeometry width="50" height="50" relative="1" as="geometry">
            <mxPoint x="390" y="430" as="sourcePoint" />
            <mxPoint x="390" y="350" as="targetPoint" />
          </mxGeometry>
        </mxCell>
        <mxCell id="NbV2ZQZ7XA-QAjactZB9-22" value="" style="endArrow=none;html=1;rounded=0;entryX=0;entryY=0.5;entryDx=0;entryDy=0;exitX=0;exitY=0.5;exitDx=0;exitDy=0;fillColor=#E6E6E6;" parent="1" source="NbV2ZQZ7XA-QAjactZB9-10" target="NbV2ZQZ7XA-QAjactZB9-9" edge="1">
          <mxGeometry width="50" height="50" relative="1" as="geometry">
            <mxPoint x="320" y="560" as="sourcePoint" />
            <mxPoint x="370" y="510" as="targetPoint" />
            <Array as="points">
              <mxPoint x="390" y="695" />
              <mxPoint x="390" y="635" />
              <mxPoint x="390" y="565" />
            </Array>
          </mxGeometry>
        </mxCell>
        <mxCell id="NbV2ZQZ7XA-QAjactZB9-23" value="" style="endArrow=none;html=1;rounded=0;exitX=0;exitY=0.5;exitDx=0;exitDy=0;entryX=1;entryY=0.5;entryDx=0;entryDy=0;fillColor=#E6E6E6;" parent="1" source="NbV2ZQZ7XA-QAjactZB9-11" target="NbV2ZQZ7XA-QAjactZB9-9" edge="1">
          <mxGeometry width="50" height="50" relative="1" as="geometry">
            <mxPoint x="390" y="525" as="sourcePoint" />
            <mxPoint x="440" y="475" as="targetPoint" />
          </mxGeometry>
        </mxCell>
        <mxCell id="NbV2ZQZ7XA-QAjactZB9-24" value="" style="endArrow=none;html=1;rounded=0;exitX=1;exitY=0.5;exitDx=0;exitDy=0;fillColor=#E6E6E6;" parent="1" source="NbV2ZQZ7XA-QAjactZB9-4" edge="1">
          <mxGeometry width="50" height="50" relative="1" as="geometry">
            <mxPoint x="390" y="530" as="sourcePoint" />
            <mxPoint x="390" y="630" as="targetPoint" />
          </mxGeometry>
        </mxCell>
      </root>
    </mxGraphModel>
  </diagram>
</mxfile>
